<svg xmlns="http://www.w3.org/2000/svg" viewBox="0 0 1024 1024" width="512" height="512">
  <rect width="1024" height="1024" rx="180" fill="#3C4F4A"/>
  <g fill="#ffffff">
    <path d="M101.638 323.55L187.72 323.462L187.591 536.728L187.779 615.415C187.801 620.661 188.304 658.986 187.379 660.64C163.004 663.402 140.777 659.045 122.755 641.358C112.484 631.428 105.564 618.544 102.959 604.498C101.149 595.043 101.588 577.489 101.614 567.249L101.804 513.238L101.638 323.55Z"/>
    <path d="M206.433 428.416C235.582 427.864 266.855 428.409 296.136 428.471C293.772 477.466 296.516 527.743 295.441 576.775C294.793 606.34 320.959 626.5 343.048 600.493C352.263 589.643 351.289 576.153 351.214 562.994L351.126 536.318C351.231 501.272 352.304 463.234 350.11 428.484L438.495 428.5C436.876 440.778 437.225 458.222 437.239 470.928L437.331 530.296L436.988 608.874C436.947 623.509 436.691 644.988 438.085 659.312L350.241 659.389C351.168 640.755 352.017 625.825 351.93 606.933C336.567 632.916 302.896 660.282 271.704 661.399C240.658 662.509 215.115 638.326 208.83 608.881C206.713 598.961 207.252 588.175 207.251 578.057L207.269 543.581C207.304 504.466 207.25 467.507 206.433 428.416Z"/>
    <path d="M618.466 426.7C620.286 426.512 622.115 426.419 623.945 426.423C639.988 426.397 654.713 433.22 665.941 444.524C675.138 453.779 681.595 465.398 684.597 478.095C686.886 488.195 686.409 499.16 686.42 509.523L686.432 540.66L686.171 660.454C680.713 661.326 675.185 661.688 669.66 661.533C653.599 661.106 637.094 655.899 624.53 645.707C612.476 635.863 603.94 622.376 600.203 607.269C597.68 596.878 598.459 580.659 598.468 569.407L598.516 522.048C598.525 514.03 599.107 505.003 597.489 497.242C592.996 475.683 572.416 462.96 554.714 481.337C542.364 494.157 541.944 504.238 541.969 521.026L542.04 542.429C542.057 579.227 540.899 623.349 543.431 659.458L456.965 659.435C457.921 612.572 458.215 565.697 457.846 518.825C457.85 491.347 458.914 454.956 456.647 428.349C485.411 427.943 515.797 428.294 544.621 428.484C542.269 441.339 542.461 465.875 542.471 479.259C559.273 452.765 586.49 430.355 618.466 426.7Z"/>
    <path d="M812.64 426.048C877.695 423.693 932.384 474.433 934.9 539.481C937.417 604.53 886.811 659.344 821.769 662.021C756.5 664.707 701.452 613.886 698.927 548.61C696.402 483.334 747.358 428.412 812.64 426.048Z"/>
  </g>
  <path d="M786.368 441.57C790.344 441.373 793.585 441.587 797.321 443.221C814.994 450.952 831.116 493.769 837.982 511.543C847.916 537.259 872.915 611.015 861.484 635.495C858.905 641.018 854.893 643.712 849.396 645.795C821.329 649.898 800.932 595.705 793.649 574.496C782.207 541.182 769.688 506.278 770.931 470.553C771.352 458.469 773.459 445.778 786.368 441.57Z" fill="#3C4F4A"/>
  <!-- Chat bubble icon -->
  <circle cx="860" cy="860" r="130" fill="#B4856C"/>
  <g transform="translate(860,850)" fill="#ffffff">
    <!-- Speech bubble -->
    <rect x="-52" y="-42" width="104" height="68" rx="14" fill="#ffffff"/>
    <polygon points="-20,26 -8,26 -22,46" fill="#ffffff"/>
    <!-- Three dots -->
    <circle cx="-24" cy="-8" r="8" fill="#B4856C"/>
    <circle cx="0" cy="-8" r="8" fill="#B4856C"/>
    <circle cx="24" cy="-8" r="8" fill="#B4856C"/>
  </g>
</svg>
